<svg width="21" height="21" viewBox="0 0 21 21" fill="none" xmlns="http://www.w3.org/2000/svg">
<path d="M9.6425 17.0625H6.5625C6.02 17.0625 5.53875 17.045 5.11 16.9837C2.80875 16.73 2.1875 15.645 2.1875 12.6875V8.3125C2.1875 5.355 2.80875 4.27 5.11 4.01625C5.53875 3.955 6.02 3.9375 6.5625 3.9375H9.59" stroke="#292D32" stroke-width="1.5" stroke-linecap="round" stroke-linejoin="round"/>
<path d="M13.1426 3.9375H14.4376C14.9801 3.9375 15.4613 3.955 15.8901 4.01625C18.1913 4.27 18.8126 5.355 18.8126 8.3125V12.6875C18.8126 15.645 18.1913 16.73 15.8901 16.9837C15.4613 17.045 14.9801 17.0625 14.4376 17.0625H13.1426" stroke="#292D32" stroke-width="1.5" stroke-linecap="round" stroke-linejoin="round"/>
<path d="M13.125 1.75V19.25" stroke="#292D32" stroke-width="1.5" stroke-linecap="round" stroke-linejoin="round"/>
<path d="M7 7.4375V13.5625" stroke="#292D32" stroke-width="1.5" stroke-linecap="round" stroke-linejoin="round"/>
</svg>
