<svg width="28" height="28" viewBox="0 0 28 28" fill="none" xmlns="http://www.w3.org/2000/svg">
<g clip-path="url(#clip0_68_5593)">
<path opacity="0.67" d="M14.9041 2.92422C14.7338 2.79647 14.5248 2.72274 14.3022 2.71883C13.8871 2.71201 13.5103 2.95273 13.3411 3.3308L11.0367 8.48608L5.41421 8.91631C5.00167 8.94694 4.6479 9.22015 4.5137 9.61228C4.37994 10.0038 4.49125 10.4356 4.7981 10.7134L8.97983 14.4868L7.63961 19.9694C7.54161 20.3726 7.69177 20.793 8.02278 21.0413C8.35379 21.2896 8.79948 21.3161 9.15857 21.1099L14.0476 18.2882L18.8398 21.2463C19.1925 21.4644 19.6387 21.4497 19.9772 21.2117C20.3156 20.9737 20.48 20.5575 20.3939 20.1529L19.233 14.6352L23.5373 10.9803C23.8536 10.7114 23.9791 10.2822 23.8561 9.88634C23.7337 9.49093 23.3873 9.20776 22.9776 9.16565L17.3737 8.57546L15.2397 3.35929C15.1672 3.18348 15.0511 3.03453 14.9041 2.92422ZM16.6265 9.57157C16.7735 9.68189 16.9488 9.75164 17.138 9.77217L22.4281 10.3273L18.3655 13.7771C18.0762 14.0225 17.9449 14.4068 18.0234 14.7785L19.119 19.989L14.5937 17.1957C14.2678 16.9948 13.8616 16.9898 13.5315 17.1814L8.92015 19.845L10.1852 14.6704C10.2767 14.3028 10.1583 13.9142 9.87484 13.658L5.92612 10.0948L11.235 9.6884C11.6149 9.65967 11.9466 9.42658 12.1011 9.07898L14.2767 4.21392L16.2907 9.13662C16.3633 9.31243 16.4794 9.46126 16.6265 9.57157ZM9.00579 14.3808C9.00579 14.3808 9.00632 14.3801 9.00605 14.3789L9.00579 14.3808ZM14.1394 18.2345L14.1411 18.2338C14.1405 18.2345 14.1405 18.2345 14.1394 18.2345Z" fill="black"/>
</g>
<defs>
<clipPath id="clip0_68_5593">
<rect width="19.4319" height="19.4319" fill="white" transform="matrix(0.799954 0.600061 0.600061 -0.799954 0 15.5447)"/>
</clipPath>
</defs>
</svg>
