<?xml version="1.0" standalone="no"?>
<!DOCTYPE svg PUBLIC "-//W3C//DTD SVG 20010904//EN"
 "http://www.w3.org/TR/2001/REC-SVG-20010904/DTD/svg10.dtd">
<svg version="1.0" xmlns="http://www.w3.org/2000/svg"
 width="512.000000pt" height="512.000000pt" viewBox="0 0 512.000000 512.000000"
 preserveAspectRatio="xMidYMid meet">
<metadata>
Created by potrace 1.14, written by Peter Selinger 2001-2017
</metadata>
<g transform="translate(0.000000,512.000000) scale(0.100000,-0.100000)"
fill="#000000" stroke="none">
<path d="M316 3983 c33 -195 73 -324 146 -473 53 -108 150 -259 210 -326 39
-46 185 -191 219 -219 48 -40 176 -124 254 -167 67 -36 207 -101 225 -103 3
-1 36 -11 74 -23 37 -12 79 -24 92 -26 13 -3 32 -7 42 -10 65 -20 186 -31 337
-31 201 0 295 15 591 96 65 17 128 33 139 35 11 1 34 5 50 7 17 3 50 9 75 12
25 4 53 9 63 11 100 18 396 24 567 10 120 -9 298 -40 415 -72 50 -14 97 -27
105 -28 8 -2 62 -20 119 -40 57 -20 105 -35 107 -34 1 2 5 21 9 43 47 273 10
527 -112 768 -72 143 -226 311 -378 412 -135 90 -261 139 -450 175 -95 18
-170 19 -1503 20 l-1403 0 7 -37z"/>
<path d="M2947 2663 c-4 -4 -29 -8 -55 -9 -26 -2 -63 -6 -82 -9 -19 -4 -46 -9
-60 -11 -111 -19 -307 -67 -339 -83 -9 -4 -31 -11 -49 -15 -72 -13 -265 -117
-427 -230 -55 -38 -102 -72 -105 -75 -3 -3 -27 -24 -55 -46 -199 -159 -375
-359 -496 -565 -42 -72 -51 -90 -96 -190 -23 -49 -82 -219 -88 -252 -2 -11 -7
-28 -10 -39 -13 -40 7 -35 87 19 46 30 112 68 148 85 36 16 90 40 120 54 78
36 229 88 280 98 3 0 21 6 40 13 51 17 307 70 376 77 59 6 67 8 134 19 19 3
60 8 90 11 30 3 66 7 80 9 38 6 238 17 396 21 302 8 529 84 773 260 22 15 213
206 239 238 12 15 43 58 69 95 26 37 50 69 55 70 4 2 8 9 8 16 0 7 8 21 18 32
23 25 100 176 104 205 3 20 -7 27 -81 57 -90 36 -350 105 -441 116 -29 4 -63
9 -74 11 -12 2 -37 7 -56 11 -51 9 -495 16 -503 7z"/>
<path d="M4175 2324 c-14 -31 -56 -103 -95 -160 -39 -57 -65 -104 -58 -105 7
0 51 -2 98 -4 47 -1 186 -6 310 -10 124 -4 251 -9 282 -10 31 -1 55 1 53 5 -8
13 -242 168 -321 212 -124 70 -232 128 -238 128 -4 0 -17 -25 -31 -56z"/>
<path d="M3975 1969 c-65 -32 -140 -253 -110 -324 51 -121 234 -114 275 10 22
67 -30 237 -91 296 -32 31 -42 33 -74 18z"/>
</g>
</svg>
